<?xml version="1.0" encoding="UTF-8" standalone="no"?>
<svg
   xmlns:dc="http://purl.org/dc/elements/1.1/"
   xmlns:cc="http://creativecommons.org/ns#"
   xmlns:rdf="http://www.w3.org/1999/02/22-rdf-syntax-ns#"
   xmlns:svg="http://www.w3.org/2000/svg"
   xmlns="http://www.w3.org/2000/svg"
   xmlns:sodipodi="http://sodipodi.sourceforge.net/DTD/sodipodi-0.dtd"
   xmlns:inkscape="http://www.inkscape.org/namespaces/inkscape"
   version="1.1"
   viewBox="0 0 940 940.00123"
   enable-background="new 0 0 470 470"
   width="1024"
   height="1024.0013"
   id="svg855"
   sodipodi:docname="videoinfoICOsvg.svg"
   inkscape:version="0.92.2 (5c3e80d, 2017-08-06)">
  <metadata
     id="metadata861">
    <rdf:RDF>
      <cc:Work
         rdf:about="">
        <dc:format>image/svg+xml</dc:format>
        <dc:type
           rdf:resource="http://purl.org/dc/dcmitype/StillImage" />
        <dc:title></dc:title>
      </cc:Work>
    </rdf:RDF>
  </metadata>
  <defs
     id="defs859" />
  <sodipodi:namedview
     pagecolor="#ffffff"
     bordercolor="#666666"
     borderopacity="1"
     objecttolerance="10"
     gridtolerance="10"
     guidetolerance="10"
     inkscape:pageopacity="0"
     inkscape:pageshadow="2"
     inkscape:window-width="1920"
     inkscape:window-height="1017"
     id="namedview857"
     showgrid="false"
     fit-margin-top="0"
     fit-margin-left="0"
     fit-margin-right="0"
     fit-margin-bottom="0"
     inkscape:zoom="0.1463932"
     inkscape:cx="-811.87257"
     inkscape:cy="-782.4476"
     inkscape:window-x="-8"
     inkscape:window-y="-8"
     inkscape:window-maximized="1"
     inkscape:current-layer="svg855" />
  <g
     id="g897"
     transform="matrix(12.80573,0,0,12.803451,-0.2104015,-19.992242)"
     inkscape:export-xdpi="96"
     inkscape:export-ydpi="96">
    <g
       transform="matrix(0.94386187,0,0,0.97939335,-139.78764,-112.58582)"
       id="g885">
      <ellipse
         style="fill:#dedbe3;fill-opacity:1;stroke:#0003f0;stroke-width:1.8359375;stroke-miterlimit:4;stroke-dasharray:none;stroke-opacity:1"
         id="path863"
         cx="187.00447"
         cy="154.03024"
         rx="37.967297"
         ry="36.563297" />
      <g
         id="g853"
         transform="matrix(0.125,0,0,0.125,164.0566,126.36879)"
         style="stroke-width:8">
        <path
           d="m 467.804,435.984 -58.542,-58.543 c -1.407,-1.406 -3.314,-2.196 -5.304,-2.196 -1.99,0 -3.896,0.79 -5.304,2.196 l -5.303,5.303 -10.844,-10.844 c 14.635,-17.059 23.491,-39.214 23.491,-63.401 0,-53.762 -43.738,-97.5 -97.5,-97.5 -53.762,0 -97.5,43.738 -97.5,97.5 0,53.762 43.738,97.5 97.5,97.5 24.187,0 46.342,-8.856 63.401,-23.491 l 10.844,10.844 -5.303,5.303 c -1.406,1.407 -2.196,3.314 -2.196,5.304 0,1.99 0.79,3.896 2.196,5.304 l 58.543,58.542 c 1.465,1.464 3.385,2.196 5.304,2.196 1.919,0 3.839,-0.732 5.304,-2.196 l 21.213,-21.213 c 2.928,-2.931 2.928,-7.679 0,-10.608 z M 225.998,308.498 c 0,-45.49 37.01,-82.5 82.5,-82.5 45.49,0 82.5,37.01 82.5,82.5 0,45.49 -37.01,82.5 -82.5,82.5 -45.49,0 -82.5,-37.01 -82.5,-82.5 z m 215.289,143.396 -47.937,-47.936 10.607,-10.607 47.936,47.937 z"
           id="path839"
           inkscape:connector-curvature="0"
           style="fill:#006df0;stroke-width:64" />
        <path
           d="M 229.219,390.998 H 15 v -45 h 177.295 c 4.142,0 7.5,-3.357 7.5,-7.5 0,-4.143 -3.358,-7.5 -7.5,-7.5 H 15 V 15 h 196.411 v 82.087 c 0,4.143 3.358,7.5 7.5,7.5 h 82.087 v 83.911 c 0,4.143 3.357,7.5 7.5,7.5 4.143,0 7.5,-3.357 7.5,-7.5 V 97.087 c 0,-0.251 -0.013,-0.501 -0.038,-0.749 -0.018,-0.184 -0.05,-0.364 -0.081,-0.544 -0.011,-0.061 -0.016,-0.123 -0.028,-0.183 -0.043,-0.218 -0.099,-0.431 -0.161,-0.642 -0.006,-0.022 -0.01,-0.045 -0.017,-0.067 -0.066,-0.216 -0.143,-0.426 -0.227,-0.633 -0.007,-0.018 -0.013,-0.038 -0.02,-0.056 -0.081,-0.195 -0.173,-0.385 -0.27,-0.572 -0.016,-0.031 -0.028,-0.063 -0.045,-0.093 -0.091,-0.169 -0.192,-0.332 -0.295,-0.493 -0.029,-0.046 -0.054,-0.094 -0.084,-0.139 -0.099,-0.148 -0.208,-0.288 -0.317,-0.428 -0.042,-0.053 -0.078,-0.11 -0.121,-0.162 -0.12,-0.146 -0.25,-0.284 -0.381,-0.421 -0.038,-0.04 -0.071,-0.083 -0.11,-0.122 L 224.214,2.196 C 224.196,2.178 224.176,2.163 224.157,2.145 224.001,1.992 223.84,1.844 223.671,1.705 223.616,1.66 223.558,1.622 223.502,1.579 223.364,1.472 223.227,1.365 223.082,1.268 223.031,1.234 222.977,1.206 222.926,1.173 222.77,1.074 222.614,0.976 222.451,0.889 222.415,0.87 222.377,0.854 222.34,0.836 222.159,0.742 221.975,0.653 221.786,0.574 221.762,0.564 221.737,0.557 221.712,0.547 221.51,0.466 221.306,0.39 221.096,0.326 221.069,0.318 221.042,0.313 221.015,0.305 220.809,0.245 220.6,0.19 220.387,0.147 220.324,0.134 220.259,0.129 220.195,0.118 220.018,0.087 219.841,0.056 219.659,0.038 219.412,0.013 219.162,0 218.911,0 H 7.5 C 3.358,0 0,3.358 0,7.5 v 390.998 c 0,4.143 3.358,7.5 7.5,7.5 h 221.719 c 4.142,0 7.5,-3.357 7.5,-7.5 0,-4.143 -3.358,-7.5 -7.5,-7.5 z m -2.808,-365.391 63.98,63.98 h -63.98 z"
           id="path841"
           inkscape:connector-curvature="0"
           style="fill:#006df0;stroke-width:64" />
        <path
           d="m 270.998,127.087 v 65.208 c 0,4.143 3.357,7.5 7.5,7.5 4.143,0 7.5,-3.357 7.5,-7.5 v -65.208 c 0,-4.143 -3.357,-7.5 -7.5,-7.5 -4.143,0 -7.5,3.357 -7.5,7.5 z"
           id="path843"
           inkscape:connector-curvature="0"
           style="fill:#006df0;stroke-width:64" />
        <path
           d="m 196.411,37.5 c 0,-4.143 -3.358,-7.5 -7.5,-7.5 H 37.5 C 33.358,30 30,33.357 30,37.5 v 270.998 c 0,4.143 3.358,7.5 7.5,7.5 4.142,0 7.5,-3.357 7.5,-7.5 V 45 h 143.911 c 4.142,0 7.5,-3.357 7.5,-7.5 z"
           id="path845"
           inkscape:connector-curvature="0"
           style="fill:#006df0;stroke-width:64" />
        <path
           d="m 308.498,240.998 c -37.22,0 -67.5,30.28 -67.5,67.5 0,37.22 30.28,67.5 67.5,67.5 37.22,0 67.5,-30.28 67.5,-67.5 0,-37.22 -30.28,-67.5 -67.5,-67.5 z m 0,120 c -28.948,0 -52.5,-23.552 -52.5,-52.5 0,-28.948 23.552,-52.5 52.5,-52.5 28.948,0 52.5,23.552 52.5,52.5 0,28.948 -23.552,52.5 -52.5,52.5 z"
           id="path847"
           inkscape:connector-curvature="0"
           style="fill:#006df0;stroke-width:64" />
        <path
           d="m 37.5,360.998 c -4.142,0 -7.5,3.357 -7.5,7.5 0,4.143 3.358,7.5 7.5,7.5 h 167.106 c 4.142,0 7.5,-3.357 7.5,-7.5 0,-4.143 -3.358,-7.5 -7.5,-7.5 z"
           id="path849"
           inkscape:connector-curvature="0"
           style="fill:#006df0;stroke-width:64" />
        <path
           d="m 214.832,172.999 c 0,-2.813 -1.574,-5.389 -4.076,-6.673 l -98.665,-50.625 c -2.326,-1.193 -5.104,-1.091 -7.333,0.272 -2.23,1.362 -3.59,3.787 -3.59,6.4 v 101.25 c 0,2.613 1.36,5.038 3.59,6.4 1.197,0.731 2.552,1.1 3.91,1.1 1.172,0 2.346,-0.274 3.423,-0.827 l 98.665,-50.625 c 2.502,-1.283 4.076,-3.859 4.076,-6.672 z m -98.665,38.347 V 134.653 L 190.903,173 Z"
           id="path851"
           inkscape:connector-curvature="0"
           style="fill:#006df0;stroke-width:64" />
      </g>
    </g>
  </g>
</svg>
